<svg id="Layer_1" data-name="Layer 1" xmlns="http://www.w3.org/2000/svg" width="203.6" height="203.6" viewBox="0 0 203.6 203.6"><title>Artboard 15</title><path d="M101.8,101.8C133,93.3,163,51.3,133,4.9A100.4,100.4,0,0,0,101.8,0,101.7,101.7,0,0,0,33.5,26.3C88.7,23.5,110,70.6,101.8,101.8Z" fill="#fda029"/><path d="M101.8,101.8C110,70.6,88.7,23.5,33.5,26.3A101.6,101.6,0,0,0,2.3,123.2C27.4,74,78.8,79,101.8,101.8Z" fill="#fed130"/><path d="M101.8,101.8c23,22.8,74.4,27.8,99.5-21.4A101.6,101.6,0,0,0,133,4.9C163,51.3,133,93.3,101.8,101.8Z" fill="#fa4d48"/><path d="M101.8,101.8C78.8,79,27.4,74,2.3,123.2a101.6,101.6,0,0,0,68.3,75.5C40.6,152.3,70.6,110.3,101.8,101.8Z" fill="#48bd2e"/><path d="M203.6,101.8a100.9,100.9,0,0,0-2.3-21.4c-25.1,49.2-76.5,44.2-99.5,21.4-8.2,31.3,13.1,78.3,68.3,75.5A101.3,101.3,0,0,0,203.6,101.8Z" fill="#b961d0"/><path d="M101.8,101.8c-31.2,8.5-61.2,50.5-31.2,96.9a101.8,101.8,0,0,0,99.5-21.4C114.9,180.1,93.6,133.1,101.8,101.8Z" fill="#229bf2"/></svg>