<svg id="Layer_1" data-name="Layer 1" xmlns="http://www.w3.org/2000/svg" width="909.4" height="244.5" viewBox="0 0 909.4 244.5"><title>Artboard 16</title><path d="M2.6,100.7H33V215.3H93.3v26.5H2.6Z" fill="#32353a"/><path d="M176.3,98.4c43.2,0,74.7,30.4,74.7,72.9s-31.5,73-74.7,73-74.4-30.5-74.4-73S133.3,98.4,176.3,98.4Zm0,26.6c-26.3,0-43.2,19.9-43.2,46.3s16.9,46.3,43.2,46.3,43.5-20,43.5-46.3S202.6,125,176.3,125Z" fill="#32353a"/><path d="M356,217.4H292.3l-9,24.4H249.9l55.2-141.1h38.1l55,141.1H365Zm-55.6-26h47.3l-23.6-64.7Z" fill="#32353a"/><path d="M411.4,100.7h56.3c44.7,0,75.7,28.1,75.7,70.6s-31,70.5-75.7,70.5H411.4Zm56.3,114.6c28.2,0,44.7-20.1,44.7-44s-15.4-44.2-44.7-44.2H441.8v88.2Z" fill="#32353a"/><path d="M565,100.7h30.4V241.8H565Z" fill="#32353a"/><path d="M654,147v94.8H623.6V100.7h31.2l66.1,91.4V100.7h30.4V241.8H722Z" fill="#32353a"/><path d="M848.6,98.4c29.5,0,48.2,14.1,59.1,30.8l-25.3,13.6A40.4,40.4,0,0,0,848.6,125c-25.9,0-44.7,19.7-44.7,46.3s18.8,46.3,44.7,46.3c13.1,0,24.6-5.2,30.8-10.7V189.7h-38V163.9h68v54c-14.6,16-34.9,26.6-60.8,26.6-41.7,0-75.9-28.8-75.9-73.2S806.9,98.4,848.6,98.4Z" fill="#32353a"/><path d="M66.4,22.7,44.9,77.6H37.8L16.3,22.7V77.6H0V1.3H22.8L41.3,48.9,59.9,1.3H82.7V77.6H66.4Z" fill="#32353a"/><path d="M97.8,1.3h54.1V15.2H114.1V31.8h37v14h-37V63.5h37.8V77.6H97.8Z" fill="#32353a"/><path d="M164.6,1.3h16.2v62h32.3V77.6H164.6Z" fill="#32353a"/><path d="M273.1,64.4H239l-4.8,13.2H216.3L245.8,1.3h20.4l29.4,76.3H277.9Zm-29.8-14h25.3L256,15.3Z" fill="#32353a"/><path d="M319,26.3V77.6H302.7V1.3h16.7l35.4,49.4V1.3H371V77.6H355.3Z" fill="#32353a"/><path d="M407.4,46.3,378,1.3h18.5l19,30.6L434.3,1.3h18.6l-29.2,45V77.6H407.4Z" fill="#32353a"/><path d="M459.9,1.3h35.8c16.5,0,25.6,11.2,25.6,24.6s-9.2,24.3-25.6,24.3H476.2V77.6H459.9Zm33.6,13.9H476.2V36.3h17.3c6.4,0,11.2-4.1,11.2-10.6S499.9,15.2,493.5,15.2Z" fill="#32353a"/><path d="M523.2,1.3h18.6L562.9,60,584,1.3h18.5L573.1,77.6H552.8Z" fill="#32353a"/><path d="M606.4,60.3a9.3,9.3,0,1,1-9.2,9.3A9.3,9.3,0,0,1,606.4,60.3Z" fill="#32353a"/><path d="M625,39.5C625,16,642.7,0,665,0c17.4,0,27.2,9.2,32.5,18.7l-13.9,6.8A20.9,20.9,0,0,0,665,14.4c-13.2,0-23.3,10.7-23.3,25.1s10.1,25,23.3,25a20.7,20.7,0,0,0,18.6-11.1l13.9,6.8C692,69.7,682.4,79,665,79,642.7,79,625,62.9,625,39.5Z" fill="#32353a"/><path d="M755.1,64.4H721l-4.8,13.2H698.3L727.9,1.3h20.3l29.4,76.3H759.9Zm-29.8-14h25.3L738,15.3Z" fill="#32353a"/><path d="M814,1.3h16.3V77.6H814Z" fill="#32353a"/><path d="M849.1,54.5a33.3,33.3,0,0,0,24.2,10.3c8.9,0,13.3-4.3,13.3-8.6s-6.6-7.7-15.5-9.7c-12.4-2.9-28.5-6.3-28.5-23.4,0-12.7,11-23,29-23,12.1,0,22.2,3.7,29.8,10.7l-9.1,11.9a32.2,32.2,0,0,0-21.8-8.4c-7.4,0-11.3,3.2-11.3,7.8s6.4,6.7,15.3,8.8c12.5,2.9,28.6,6.6,28.6,23.6,0,13.9-10,24.5-30.6,24.5-14.6,0-25.2-5-32.4-12.2Z" fill="#32353a"/></svg>