<svg xmlns="http://www.w3.org/2000/svg">
  <symbol id="dribbble-logo" viewBox="0 0 438.53 438.53">
  <path d="M409.133 109.203c-19.608-33.592-46.205-60.189-79.798-79.796C295.736 9.801 259.058 0 219.273 0c-39.781 0-76.47 9.801-110.063 29.407-33.595 19.604-60.192 46.201-79.8 79.796C9.801 142.8 0 179.489 0 219.267c0 39.78 9.804 76.463 29.407 110.062 19.607 33.592 46.204 60.189 79.799 79.798 33.597 19.605 70.283 29.407 110.063 29.407s76.47-9.802 110.065-29.407c33.593-19.602 60.189-46.206 79.795-79.798 19.603-33.596 29.403-70.284 29.403-110.062.001-39.782-9.8-76.472-29.399-110.064zM219.27 31.977c47.201 0 88.41 15.607 123.621 46.82l-3.569 4.993c-1.427 2.002-4.996 5.852-10.704 11.565-5.709 5.708-11.943 11.136-18.699 16.274-6.762 5.14-15.94 10.992-27.555 17.559-11.611 6.567-23.982 12.328-37.117 17.276-21.887-40.355-45.296-76.709-70.231-109.064 15.039-3.616 29.789-5.423 44.254-5.423zM72.524 103.06c18.271-23.026 40.537-40.73 66.806-53.1 23.601 31.405 46.82 67.381 69.662 107.921-57.862 15.227-115.532 22.841-173.014 22.838 6.094-28.739 18.275-54.628 36.546-77.659zM44.54 286.794c-8.376-21.412-12.563-43.923-12.563-67.527 0-2.666.098-4.665.286-5.996 68.905 0 132.955-8.848 192.149-26.553 6.092 11.8 11.136 22.364 15.133 31.693-.771.38-1.999.806-3.713 1.283-1.719.476-2.953.806-3.721.999l-10.561 3.711c-7.236 2.666-16.708 7.235-28.409 13.703-11.704 6.478-24.123 14.182-37.257 23.13-13.134 8.949-26.696 20.797-40.684 35.553-13.99 14.75-25.743 30.591-35.26 47.53-15.227-16.939-27.026-36.12-35.4-57.526zM219.27 406.56c-44.54 0-84.32-14.277-119.343-42.825l4.283 3.142c6.661-14.66 16.462-28.746 29.408-42.257 12.944-13.511 25.41-24.413 37.401-32.695 11.991-8.274 25.028-16.077 39.115-23.414 14.084-7.323 23.691-11.991 28.835-13.983 5.14-1.998 9.233-3.572 12.278-4.716l.568-.287h.575c18.647 48.916 31.977 96.313 39.968 142.184-23.602 9.902-47.961 14.848-73.088 14.851zm157.606-86.081c-14.086 21.796-31.696 39.834-52.817 54.104-7.81-43.776-19.985-88.415-36.549-133.902 37.877-5.907 76.8-3.142 116.771 8.274-4.189 25.886-13.326 49.732-27.405 71.524zm26.83-103.781a232.46 232.46 0 0 0-7.139-1.283c-2.854-.473-6.331-1.047-10.424-1.713-4.087-.666-8.662-1.283-13.702-1.855a549.162 549.162 0 0 0-16.136-1.569c-5.708-.478-11.8-.855-18.268-1.143a449.763 449.763 0 0 0-19.705-.428c-6.656 0-13.657.193-20.981.571a246.549 246.549 0 0 0-21.265 1.999c-.575-.953-1.287-2.524-2.143-4.714-.855-2.187-1.479-3.855-1.848-4.997a1895.128 1895.128 0 0 0-12.573-27.121c13.134-5.333 25.652-11.469 37.555-18.418 11.892-6.949 21.402-13.131 28.544-18.555a237.319 237.319 0 0 0 20.27-17.277c6.379-6.09 10.513-10.323 12.423-12.703a286.978 286.978 0 0 0 5.424-6.995l.287-.288c27.788 33.88 41.974 72.897 42.538 117.059l-2.857-.57z"/></symbol>
  <symbol id="behance-logo" viewBox="0 0 430.12 430.12">
    <path d="M388.432 119.12H280.659V92.35h107.782v26.77h-.009zm-179.52 109.775c6.954 10.771 10.429 23.849 10.429 39.203 0 15.878-3.918 30.122-11.889 42.704-5.071 8.326-11.367 15.359-18.932 21.021-8.52 6.548-18.607 11.038-30.203 13.437-11.633 2.403-24.224 3.617-37.787 3.617H0V81.247h129.25c32.579.53 55.676 9.969 69.315 28.506 8.184 11.369 12.239 25.011 12.239 40.868 0 16.362-4.104 29.454-12.368 39.401-4.597 5.577-11.388 10.65-20.378 15.229 13.617 4.985 23.949 12.835 30.854 23.644zM61.722 186.76h56.632c11.638 0 21.046-2.212 28.292-6.634 7.241-4.415 10.854-12.263 10.854-23.531 0-12.449-4.784-20.712-14.375-24.689-8.244-2.763-18.792-4.186-31.591-4.186H61.722v59.04zm101.231 77.515c0-13.902-5.682-23.513-17.023-28.67-6.342-2.931-15.29-4.429-26.763-4.536H61.722v71.322h56.556c11.619 0 20.612-1.521 27.102-4.694 11.704-5.834 17.573-16.937 17.573-33.422zm265.466-43.539c1.302 8.756 1.891 21.46 1.652 38.065H290.493c.77 19.266 7.421 32.739 20.035 40.449 7.607 4.835 16.83 7.196 27.63 7.196 11.388 0 20.67-2.879 27.815-8.797 3.893-3.137 7.327-7.565 10.296-13.152h51.16c-1.34 11.379-7.5 22.92-18.57 34.648-17.151 18.641-41.205 27.988-72.097 27.988-25.52 0-48.011-7.883-67.533-23.592C249.772 307.777 240 282.211 240 246.746c0-33.257 8.773-58.712 26.378-76.43 17.67-17.751 40.474-26.586 68.583-26.586 16.661 0 31.68 2.978 45.079 8.965 13.357 5.993 24.396 15.425 33.09 28.388 7.868 11.416 12.928 24.616 15.289 39.653zm-50.357 4.994c-.938-13.322-5.386-23.405-13.395-30.296-7.943-6.91-17.866-10.379-29.706-10.379-12.886 0-22.836 3.708-29.906 10.996-7.118 7.273-11.547 17.161-13.362 29.68h86.369v-.001z"/></symbol>
  <symbol id="instagram-logo" viewBox="0 0 169.06 169.06">
    <path d="M122.406 0H46.654C20.929 0 0 20.93 0 46.655v75.752c0 25.726 20.929 46.655 46.654 46.655h75.752c25.727 0 46.656-20.93 46.656-46.655V46.655C169.063 20.93 148.133 0 122.406 0zm31.657 122.407c0 17.455-14.201 31.655-31.656 31.655H46.654C29.2 154.063 15 139.862 15 122.407V46.655C15 29.201 29.2 15 46.654 15h75.752c17.455 0 31.656 14.201 31.656 31.655v75.752z"/>
    <path d="M84.531 40.97c-24.021 0-43.563 19.542-43.563 43.563 0 24.02 19.542 43.561 43.563 43.561s43.563-19.541 43.563-43.561c0-24.021-19.542-43.563-43.563-43.563zm0 72.123c-15.749 0-28.563-12.812-28.563-28.561 0-15.75 12.813-28.563 28.563-28.563s28.563 12.813 28.563 28.563c0 15.749-12.814 28.561-28.563 28.561zm45.39-84.842c-2.89 0-5.729 1.17-7.77 3.22a11.053 11.053 0 0 0-3.23 7.78c0 2.891 1.18 5.73 3.23 7.78 2.04 2.04 4.88 3.22 7.77 3.22 2.9 0 5.73-1.18 7.78-3.22 2.05-2.05 3.22-4.89 3.22-7.78 0-2.9-1.17-5.74-3.22-7.78-2.04-2.05-4.88-3.22-7.78-3.22z"/>
  </symbol>
</svg>
